<svg xmlns="http://www.w3.org/2000/svg" xmlns:xlink="http://www.w3.org/1999/xlink" width="161" height="34" viewBox="0 0 161 34">
  <defs>
    <path id="deploybutton-code2-a" d="M54.875,23.1523438 C53.5631445,23.1523438 52.5126179,22.727055 51.7233887,21.8764648 C50.9341595,21.0258747 50.5395508,19.9192776 50.5395508,18.5566406 C50.5395508,17.0924406 50.941565,15.9244835 51.7456055,15.0527344 C52.5496459,14.1809852 53.6414319,13.7451172 55.0209961,13.7451172 C56.2989973,13.7451172 57.3283652,14.16829 58.1091309,15.0146484 C58.8898965,15.8610068 59.2802734,16.9676038 59.2802734,18.3344727 C59.2802734,19.8198316 58.8803751,20.9941363 58.0805664,21.8574219 C57.2807577,22.7207074 56.2122463,23.1523438 54.875,23.1523438 Z M54.9448242,15.0717773 C54.1111612,15.0717773 53.4330267,15.3828094 52.9104004,16.0048828 C52.3877741,16.6269562 52.1264648,17.4457957 52.1264648,18.4614258 C52.1264648,19.4728241 52.3803686,20.2874318 52.8881836,20.9052734 C53.3959986,21.5231151 54.06038,21.8320312 54.8813477,21.8320312 C55.7530968,21.8320312 56.4407527,21.5379261 56.9443359,20.949707 C57.4479192,20.3614879 57.699707,19.5384167 57.699707,18.4804688 C57.699707,17.3928982 57.4553247,16.5529001 56.9665527,15.9604492 C56.4777808,15.3679983 55.803878,15.0717773 54.9448242,15.0717773 Z M62.2827148,22.0415039 L62.2573242,22.0415039 L62.2573242,25.9897461 L60.784668,25.9897461 L60.784668,16.5 L62.2573242,16.5 L62.2573242,17.6425781 L62.2827148,17.6425781 C62.7862981,16.7792926 63.5226189,16.3476562 64.4916992,16.3476562 C65.3168987,16.3476562 65.9601214,16.6375297 66.4213867,17.2172852 C66.882652,17.7970407 67.1132812,18.5756787 67.1132812,19.5532227 C67.1132812,20.6365614 66.8530299,21.5040658 66.3325195,22.1557617 C65.8120091,22.8074577 65.1010787,23.1333008 64.199707,23.1333008 C63.3702758,23.1333008 62.7312848,22.7693721 62.2827148,22.0415039 Z M62.2446289,19.4770508 L62.2446289,20.2832031 C62.2446289,20.7571638 62.3959132,21.159178 62.6984863,21.4892578 C63.0010595,21.8193376 63.3850888,21.984375 63.8505859,21.984375 C64.3964871,21.984375 64.8249496,21.7717306 65.1359863,21.3464355 C65.447023,20.9211405 65.6025391,20.3276405 65.6025391,19.565918 C65.6025391,18.9269174 65.4576024,18.4265155 65.1677246,18.0646973 C64.8778469,17.7028791 64.485354,17.5219727 63.9902344,17.5219727 C63.4654922,17.5219727 63.0433772,17.7081687 62.723877,18.0805664 C62.4043767,18.4529641 62.2446289,18.9184542 62.2446289,19.4770508 Z M74.1210938,20.1499023 L69.6904297,20.1499023 C69.7073569,20.7508168 69.892495,21.2141911 70.2458496,21.5400391 C70.5992042,21.865887 71.0847951,22.0288086 71.7026367,22.0288086 C72.3966506,22.0288086 73.0335257,21.8214539 73.6132812,21.4067383 L73.6132812,22.59375 C73.0208304,22.9661477 72.2379606,23.1523438 71.2646484,23.1523438 C70.3082634,23.1523438 69.5581896,22.8571807 69.0144043,22.2668457 C68.470619,21.6765107 68.1987305,20.846034 68.1987305,19.7753906 C68.1987305,18.7639923 68.4981253,17.9398632 69.0969238,17.3029785 C69.6957224,16.6660938 70.4394487,16.3476562 71.328125,16.3476562 C72.2168013,16.3476562 72.9044572,16.6332979 73.3911133,17.2045898 C73.8777694,17.7758818 74.1210938,18.5693309 74.1210938,19.5849609 L74.1210938,20.1499023 Z M72.6992188,19.1088867 C72.694987,18.5799127 72.570151,18.1683771 72.324707,17.8742676 C72.0792631,17.580158 71.7407248,17.4331055 71.309082,17.4331055 C70.8859028,17.4331055 70.5272638,17.5875636 70.2331543,17.8964844 C69.9390448,18.2054052 69.7581384,18.6095353 69.6904297,19.1088867 L72.6992188,19.1088867 Z M81.3129883,23 L79.840332,23 L79.840332,19.3374023 C79.840332,18.122878 79.4108116,17.515625 78.5517578,17.515625 C78.1031879,17.515625 77.7329116,17.6838362 77.440918,18.0202637 C77.1489243,18.3566911 77.0029297,18.7809219 77.0029297,19.2929688 L77.0029297,23 L75.5239258,23 L75.5239258,16.5 L77.0029297,16.5 L77.0029297,17.5791016 L77.0283203,17.5791016 C77.5149764,16.7581339 78.2174433,16.3476562 79.1357422,16.3476562 C79.8424515,16.3476562 80.3819968,16.5772275 80.7543945,17.036377 C81.1267922,17.4955264 81.3129883,18.1588498 81.3129883,19.0263672 L81.3129883,23 Z"/>
    <path id="deploybutton-code2-b" d="M86.7379141,14.8496094 C86.5517152,14.8496094 86.3930254,14.7861334 86.2618398,14.6591797 C86.1306543,14.5322259 86.0650625,14.3714202 86.0650625,14.1767578 C86.0650625,13.9820954 86.1306543,13.8202318 86.2618398,13.6911621 C86.3930254,13.5620925 86.5517152,13.4975586 86.7379141,13.4975586 C86.9283447,13.4975586 87.0902083,13.5620925 87.2235098,13.6911621 C87.3568112,13.8202318 87.4234609,13.9820954 87.4234609,14.1767578 C87.4234609,14.3629567 87.3568112,14.5216465 87.2235098,14.652832 C87.0902083,14.7840176 86.9283447,14.8496094 86.7379141,14.8496094 Z M87.2457266,23 L86.2047109,23 L86.2047109,16.5 L87.2457266,16.5 L87.2457266,23 Z M94.7486562,23 L93.7076406,23 L93.7076406,19.2929688 C93.7076406,17.9134046 93.2040649,17.2236328 92.1968984,17.2236328 C91.676388,17.2236328 91.2458096,17.4193503 90.9051504,17.810791 C90.5644911,18.2022318 90.3941641,18.6962861 90.3941641,19.2929688 L90.3941641,23 L89.3531484,23 L89.3531484,16.5 L90.3941641,16.5 L90.3941641,17.5791016 L90.4195547,17.5791016 C90.9104426,16.7581339 91.6213729,16.3476562 92.5523672,16.3476562 C93.2633082,16.3476562 93.8070854,16.5772275 94.1837148,17.036377 C94.5603443,17.4955264 94.7486562,18.1588498 94.7486562,19.0263672 L94.7486562,23 Z M107.177367,13.8974609 L103.806762,23 L102.632445,23 L99.3316641,13.8974609 L100.518676,13.8974609 L103.038695,21.1147461 C103.119099,21.3474947 103.180459,21.6162094 103.222777,21.9208984 L103.248168,21.9208984 C103.282022,21.6669909 103.351846,21.3940444 103.457641,21.1020508 L106.028441,13.8974609 L107.177367,13.8974609 Z M108.059691,22.6318359 L108.059691,21.375 C108.203572,21.5019538 108.376015,21.6162104 108.577025,21.7177734 C108.778036,21.8193364 108.989622,21.9050289 109.211791,21.9748535 C109.43396,22.0446781 109.657184,22.0986326 109.881469,22.1367188 C110.105754,22.1748049 110.313108,22.1938477 110.503539,22.1938477 C111.159467,22.1938477 111.649289,22.0721855 111.973021,21.8288574 C112.296754,21.5855294 112.458617,21.2353538 112.458617,20.7783203 C112.458617,20.5328764 112.404663,20.3191741 112.296752,20.137207 C112.188841,19.95524 112.039673,19.7891446 111.849242,19.638916 C111.658812,19.4886874 111.433472,19.3448086 111.173217,19.2072754 C110.912962,19.0697422 110.63261,18.9248054 110.332152,18.7724609 C110.014768,18.6116528 109.718547,18.4487313 109.44348,18.2836914 C109.168414,18.1186515 108.929321,17.9366872 108.726195,17.737793 C108.523069,17.5388987 108.363322,17.3135592 108.246947,17.0617676 C108.130573,16.809976 108.072387,16.5148129 108.072387,16.1762695 C108.072387,15.7615539 108.163369,15.4007991 108.345336,15.0939941 C108.527303,14.7871892 108.766396,14.5343434 109.062621,14.3354492 C109.358847,14.136555 109.696327,13.9884445 110.075072,13.8911133 C110.453818,13.7937821 110.839963,13.7451172 111.23352,13.7451172 C112.130659,13.7451172 112.784461,13.8530263 113.194945,14.0688477 L113.194945,15.2685547 C112.657508,14.896157 111.967736,14.7099609 111.125609,14.7099609 C110.892861,14.7099609 110.660116,14.7342934 110.427367,14.782959 C110.194619,14.8316246 109.987264,14.9109695 109.805297,15.0209961 C109.62333,15.1310227 109.475219,15.2727856 109.360961,15.4462891 C109.246703,15.6197925 109.189574,15.831379 109.189574,16.0810547 C109.189574,16.3138032 109.232949,16.5148104 109.319701,16.684082 C109.406453,16.8533537 109.534463,17.0078118 109.703734,17.1474609 C109.873006,17.2871101 110.079303,17.4225254 110.322631,17.5537109 C110.565959,17.6848965 110.846311,17.8287753 111.163695,17.9853516 C111.489543,18.1461597 111.798459,18.3154288 112.090453,18.4931641 C112.382447,18.6708993 112.638466,18.8676747 112.85852,19.0834961 C113.078573,19.2993175 113.253132,19.5384101 113.382201,19.8007812 C113.511271,20.0631524 113.575805,20.3636051 113.575805,20.7021484 C113.575805,21.1507184 113.487996,21.530516 113.312377,21.8415527 C113.136758,22.1525894 112.899781,22.4054352 112.601439,22.6000977 C112.303098,22.7947601 111.95927,22.9354651 111.569945,23.0222168 C111.18062,23.1089685 110.770143,23.1523438 110.3385,23.1523438 C110.194619,23.1523438 110.016886,23.1407065 109.805297,23.1174316 C109.593707,23.0941568 109.377889,23.060303 109.157836,23.0158691 C108.937783,22.9714353 108.72937,22.9164229 108.532592,22.8508301 C108.335813,22.7852373 108.178182,22.71224 108.059691,22.6318359 Z M125.147582,22.6191406 C124.474727,22.9746112 123.636845,23.1523438 122.63391,23.1523438 C121.338982,23.1523438 120.302208,22.7355185 119.523559,21.9018555 C118.744909,21.0681924 118.35559,19.9742906 118.35559,18.6201172 C118.35559,17.1643807 118.793574,15.9879602 119.669555,15.0908203 C120.545536,14.1936804 121.656364,13.7451172 123.002074,13.7451172 C123.86536,13.7451172 124.580522,13.8699532 125.147582,14.1196289 L125.147582,15.2558594 C124.495886,14.8919253 123.776492,14.7099609 122.989379,14.7099609 C121.944126,14.7099609 121.096723,15.0590785 120.447143,15.7573242 C119.797563,16.4555699 119.472777,17.388666 119.472777,18.5566406 C119.472777,19.6653701 119.776404,20.5487435 120.383666,21.2067871 C120.990928,21.8648308 121.787551,22.1938477 122.773559,22.1938477 C123.687626,22.1938477 124.478959,21.9907247 125.147582,21.5844727 L125.147582,22.6191406 Z M129.578246,23.1523438 C128.617629,23.1523438 127.850629,22.8487172 127.277221,22.2414551 C126.703813,21.6341929 126.417113,20.8291066 126.417113,19.8261719 C126.417113,18.7343695 126.71545,17.8816762 127.312133,17.2680664 C127.908815,16.6544566 128.71496,16.3476562 129.73059,16.3476562 C130.69967,16.3476562 131.456092,16.6459931 131.999877,17.2426758 C132.543662,17.8393585 132.815551,18.6666614 132.815551,19.7246094 C132.815551,20.7613984 132.522504,21.5918751 131.9364,22.2160645 C131.350297,22.8402538 130.564254,23.1523438 129.578246,23.1523438 Z M129.654418,17.2236328 C128.985795,17.2236328 128.456829,17.4510882 128.067504,17.9060059 C127.678179,18.3609235 127.48352,18.9882773 127.48352,19.7880859 C127.48352,20.5582721 127.680295,21.1655251 128.073852,21.6098633 C128.467408,22.0542014 128.994258,22.2763672 129.654418,22.2763672 C130.327273,22.2763672 130.844602,22.0584332 131.20642,21.6225586 C131.568238,21.186684 131.749145,20.5667358 131.749145,19.7626953 C131.749145,18.9501912 131.568238,18.3238954 131.20642,17.8837891 C130.844602,17.4436827 130.327273,17.2236328 129.654418,17.2236328 Z M140.026488,23 L138.985473,23 L138.985473,21.8955078 L138.960082,21.8955078 C138.477658,22.7334026 137.732874,23.1523438 136.725707,23.1523438 C135.908971,23.1523438 135.256227,22.8614124 134.767455,22.279541 C134.278683,21.6976696 134.034301,20.9052785 134.034301,19.9023438 C134.034301,18.8274686 134.305131,17.9663118 134.846801,17.3188477 C135.38847,16.6713835 136.10998,16.3476562 137.011352,16.3476562 C137.90426,16.3476562 138.55383,16.6988897 138.960082,17.4013672 L138.985473,17.4013672 L138.985473,13.3769531 L140.026488,13.3769531 L140.026488,23 Z M138.985473,20.0610352 L138.985473,19.1025391 C138.985473,18.5777969 138.811972,18.1334654 138.464965,17.7695312 C138.117958,17.4055971 137.677858,17.2236328 137.144652,17.2236328 C136.509884,17.2236328 136.01054,17.4563779 135.646605,17.921875 C135.282671,18.3873721 135.100707,19.0305949 135.100707,19.8515625 C135.100707,20.6005897 135.275266,21.1919737 135.624389,21.6257324 C135.973512,22.0594911 136.442175,22.2763672 137.030395,22.2763672 C137.61015,22.2763672 138.08093,22.0668966 138.442748,21.6479492 C138.804566,21.2290018 138.985473,20.7000357 138.985473,20.0610352 Z M147.358031,20.0102539 L142.768676,20.0102539 C142.785603,20.7338903 142.980262,21.2924785 143.35266,21.6860352 C143.725058,22.0795918 144.237097,22.2763672 144.888793,22.2763672 C145.620893,22.2763672 146.293738,22.0351587 146.907348,21.5527344 L146.907348,22.5302734 C146.336056,22.9449891 145.580692,23.1523438 144.641234,23.1523438 C143.722936,23.1523438 143.001426,22.8571807 142.476684,22.2668457 C141.951941,21.6765107 141.689574,20.846034 141.689574,19.7753906 C141.689574,18.7639923 141.976274,17.9398632 142.549682,17.3029785 C143.123089,16.6660938 143.835078,16.3476562 144.685668,16.3476562 C145.536258,16.3476562 146.194292,16.6227186 146.659789,17.1728516 C147.125286,17.7229845 147.358031,18.4868115 147.358031,19.4643555 L147.358031,20.0102539 Z M146.291625,19.1279297 C146.287393,18.5270152 146.142457,18.0594092 145.856811,17.7250977 C145.571165,17.3907861 145.17444,17.2236328 144.666625,17.2236328 C144.175737,17.2236328 143.758912,17.3992495 143.416137,17.7504883 C143.073362,18.101727 142.861775,18.5608696 142.781371,19.1279297 L146.291625,19.1279297 Z"/>
    <path id="deploybutton-code2-c" d="M19.8552812,27.8088125 C20.2962812,27.9806406 20.7991875,27.9695938 21.2443437,27.7554375 L27.0090625,24.9815781 C27.6147812,24.6900938 28.0000002,24.0769375 28.0000002,23.4043906 L28.0000002,4.59572969 C28.0000002,3.92316094 27.6147812,3.31010313 27.0090625,3.01861875 L21.2443437,0.244651094 C20.6601719,-0.0364363125 19.9764687,0.032412625 19.4638281,0.405144687 C19.3905469,0.458390625 19.3207656,0.517840312 19.2553594,0.583355937 L8.21942187,10.6516156 L3.4124125,7.00270156 C2.96492656,6.66302656 2.33901719,6.69085156 1.92341406,7.06890625 L0.38164875,8.47136719 C-0.126714219,8.93380469 -0.127297188,9.73356563 0.380389844,10.1967469 L4.54919062,14 L0.380389844,17.8032969 C-0.127297188,18.2665 -0.126714219,19.06625 0.38164875,19.5286875 L1.92341406,20.9310938 C2.33901719,21.3092031 2.96492656,21.3369844 3.4124125,20.997375 L8.21942187,17.3484063 L19.2553594,27.4167031 C19.4299219,27.591375 19.6348906,27.7229531 19.8552812,27.8088125 Z M21.0042656,7.64370469 L12.6305156,14 L21.0042656,20.3563281 L21.0042656,7.64370469 Z"/>
    <linearGradient id="deploybutton-code2-e" x1="50%" x2="50%" y1="0%" y2="100%">
      <stop offset="0%" stop-color="#FFF"/>
      <stop offset="100%" stop-color="#FFF" stop-opacity="0"/>
    </linearGradient>
  </defs>
  <g fill="none" fill-rule="evenodd">
    <path fill="#373277" fill-rule="nonzero" d="M158,34 L3,34 C1.35,34 0,32.65 0,31 L0,3 C0,1.35 1.35,0 3,0 L158,0 C159.65,0 161,1.35 161,3 L161,31 C161,32.65 159.65,34 158,34 Z"/>
    <g fill-rule="nonzero">
      <use fill="#000" xlink:href="#deploybutton-code2-a"/>
      <use fill="#FFF" xlink:href="#deploybutton-code2-a"/>
    </g>
    <g fill-rule="nonzero">
      <use fill="#000" xlink:href="#deploybutton-code2-b"/>
      <use fill="#FFF" xlink:href="#deploybutton-code2-b"/>
    </g>
    <g transform="translate(12 3)">
      <mask id="deploybutton-code2-d" fill="#fff">
        <use xlink:href="#deploybutton-code2-c"/>
      </mask>
      <g fill-rule="nonzero" mask="url(#deploybutton-code2-d)">
        <g transform="translate(-.11)">
          <path fill="#C6C6C6" d="M27.1184375,3.02293906 L21.3492344,0.245150937 C20.6815,-0.0763767812 19.8833906,0.0592507344 19.3592656,0.583331875 L0.472905781,17.8032969 C-0.0350896875,18.2665 -0.034505625,19.06625 0.474165781,19.5286875 L2.01686406,20.9310938 C2.43272969,21.3092031 3.05902188,21.3369844 3.50677031,20.997375 L26.2503281,3.74356719 C27.0133281,3.16473281 28.1092656,3.70893906 28.1092656,4.66667031 L28.1092656,4.59968906 C28.1092656,3.92741563 27.7241563,3.31457656 27.1184375,3.02293906 Z"/>
          <path fill="#E6E6E6" d="M27.1184375,24.9770938 L21.3492344,27.7548906 C20.6815,28.0763437 19.8833906,27.9407188 19.3592656,27.4167031 L0.472905781,10.196725 C-0.0350896875,9.73355469 -0.034505625,8.93377188 0.474165781,8.47134531 L2.01686406,7.06888438 C2.43272969,6.69082969 3.05902188,6.66299375 3.50677031,7.00267969 L26.2503281,24.2564219 C27.0133281,24.8352344 28.1092656,24.2910938 28.1092656,23.3332969 L28.1092656,23.4003438 C28.1092656,24.0725625 27.7241563,24.6853906 27.1184375,24.9770938 Z"/>
          <path fill="#EBEBEB" d="M21.3495625,27.7553281 C20.6816094,28.0765625 19.8835,27.9408281 19.359375,27.4167031 C20.005125,28.0624531 21.109375,27.6050469 21.109375,26.6917656 L21.109375,1.30819063 C21.109375,0.394906094 20.005125,-0.0624722656 19.359375,0.583319844 C19.8835,0.0591900313 20.6816094,-0.0766288906 21.3495625,0.244615 L27.1177813,3.01858594 C27.7239375,3.31007031 28.109375,3.92312813 28.109375,4.59569688 L28.109375,23.4043906 C28.109375,24.0769375 27.7239375,24.6899844 27.1177813,24.9814688 L21.3495625,27.7553281 Z"/>
          <path fill="url(#deploybutton-code2-e)" d="M19.9475938,27.8088125 C20.3885938,27.9805312 20.8915,27.9695938 21.3365469,27.7554375 L27.1012656,24.9814687 C27.7070938,24.6899844 28.0923125,24.0769375 28.0923125,23.4043906 L28.0923125,4.59570781 C28.0923125,3.92313906 27.7070938,3.31008125 27.101375,3.01859688 L21.3365469,0.244633594 C20.7524844,-0.0364545781 20.0687813,0.0323943594 19.5560313,0.405126094 C19.4828594,0.458372031 19.4130781,0.517821719 19.3475625,0.583337344 L8.31170156,10.6515937 L3.50469219,7.00267969 C3.05721719,6.66300469 2.43129687,6.69084062 2.01569375,7.06888437 L0.473933906,8.47134531 C-0.0344290625,8.93378281 -0.0350120312,9.73355469 0.472675,10.1967359 L4.64148125,14 L0.472675,17.8032969 C-0.0350120312,18.2665 -0.0344290625,19.06625 0.473933906,19.5286875 L2.01569375,20.9310937 C2.43129687,21.3092031 3.05721719,21.3369844 3.50469219,20.997375 L8.31170156,17.3484063 L19.3475625,27.4167031 C19.522125,27.591375 19.7272031,27.7229531 19.9475938,27.8088125 Z M21.0965781,7.64368281 L12.7228281,14 L21.0965781,20.3563281 L21.0965781,7.64368281 Z" opacity=".25"/>
        </g>
      </g>
    </g>
  </g>
</svg>
