<svg xmlns="http://www.w3.org/2000/svg" xmlns:xlink="http://www.w3.org/1999/xlink" width="161" height="34" viewBox="0 0 161 34">
  <defs>
    <path id="deploybutton-code-update-a" d="M19.8552812,27.8088125 C20.2962812,27.9806406 20.7991875,27.9695938 21.2443437,27.7554375 L27.0090625,24.9815781 C27.6147812,24.6900938 28.0000002,24.0769375 28.0000002,23.4043906 L28.0000002,4.59572969 C28.0000002,3.92316094 27.6147812,3.31010313 27.0090625,3.01861875 L21.2443437,0.244651094 C20.6601719,-0.0364363125 19.9764687,0.032412625 19.4638281,0.405144687 C19.3905469,0.458390625 19.3207656,0.517840312 19.2553594,0.583355937 L8.21942187,10.6516156 L3.4124125,7.00270156 C2.96492656,6.66302656 2.33901719,6.69085156 1.92341406,7.06890625 L0.38164875,8.47136719 C-0.126714219,8.93380469 -0.127297188,9.73356563 0.380389844,10.1967469 L4.54919062,14 L0.380389844,17.8032969 C-0.127297188,18.2665 -0.126714219,19.06625 0.38164875,19.5286875 L1.92341406,20.9310938 C2.33901719,21.3092031 2.96492656,21.3369844 3.4124125,20.997375 L8.21942187,17.3484063 L19.2553594,27.4167031 C19.4299219,27.591375 19.6348906,27.7229531 19.8552812,27.8088125 Z M21.0042656,7.64370469 L12.6305156,14 L21.0042656,20.3563281 L21.0042656,7.64370469 Z"/>
    <linearGradient id="deploybutton-code-update-c" x1="50%" x2="50%" y1="0%" y2="100%">
      <stop offset="0%" stop-color="#FFF"/>
      <stop offset="100%" stop-color="#FFF" stop-opacity="0"/>
    </linearGradient>
  </defs>
  <g fill="none" fill-rule="evenodd">
    <path fill="#373277" fill-rule="nonzero" d="M158,34 L3,34 C1.35,34 0,32.65 0,31 L0,3 C0,1.35 1.35,0 3,0 L158,0 C159.65,0 161,1.35 161,3 L161,31 C161,32.65 159.65,34 158,34 Z"/>
    <text fill="#FFF" font-family="SegoeUI-Semibold, Segoe UI" font-size="13" font-weight="500">
      <tspan x="50" y="23">Open</tspan>
    </text>
    <text fill="#FFF" font-family="SegoeUI, Segoe UI" font-size="13">
      <tspan x="85.151" y="23">in VS Code</tspan>
    </text>
    <g transform="translate(12 3)">
      <mask id="deploybutton-code-update-b" fill="#fff">
        <use xlink:href="#deploybutton-code-update-a"/>
      </mask>
      <g fill-rule="nonzero" mask="url(#deploybutton-code-update-b)">
        <g transform="translate(-.11)">
          <path fill="#C6C6C6" d="M27.1184375,3.02293906 L21.3492344,0.245150937 C20.6815,-0.0763767812 19.8833906,0.0592507344 19.3592656,0.583331875 L0.472905781,17.8032969 C-0.0350896875,18.2665 -0.034505625,19.06625 0.474165781,19.5286875 L2.01686406,20.9310938 C2.43272969,21.3092031 3.05902188,21.3369844 3.50677031,20.997375 L26.2503281,3.74356719 C27.0133281,3.16473281 28.1092656,3.70893906 28.1092656,4.66667031 L28.1092656,4.59968906 C28.1092656,3.92741563 27.7241563,3.31457656 27.1184375,3.02293906 Z"/>
          <path fill="#E6E6E6" d="M27.1184375,24.9770938 L21.3492344,27.7548906 C20.6815,28.0763437 19.8833906,27.9407188 19.3592656,27.4167031 L0.472905781,10.196725 C-0.0350896875,9.73355469 -0.034505625,8.93377188 0.474165781,8.47134531 L2.01686406,7.06888438 C2.43272969,6.69082969 3.05902188,6.66299375 3.50677031,7.00267969 L26.2503281,24.2564219 C27.0133281,24.8352344 28.1092656,24.2910938 28.1092656,23.3332969 L28.1092656,23.4003438 C28.1092656,24.0725625 27.7241563,24.6853906 27.1184375,24.9770938 Z"/>
          <path fill="#EBEBEB" d="M21.3495625,27.7553281 C20.6816094,28.0765625 19.8835,27.9408281 19.359375,27.4167031 C20.005125,28.0624531 21.109375,27.6050469 21.109375,26.6917656 L21.109375,1.30819063 C21.109375,0.394906094 20.005125,-0.0624722656 19.359375,0.583319844 C19.8835,0.0591900313 20.6816094,-0.0766288906 21.3495625,0.244615 L27.1177813,3.01858594 C27.7239375,3.31007031 28.109375,3.92312813 28.109375,4.59569688 L28.109375,23.4043906 C28.109375,24.0769375 27.7239375,24.6899844 27.1177813,24.9814688 L21.3495625,27.7553281 Z"/>
          <path fill="url(#deploybutton-code-update-c)" d="M19.9475938,27.8088125 C20.3885938,27.9805312 20.8915,27.9695938 21.3365469,27.7554375 L27.1012656,24.9814687 C27.7070938,24.6899844 28.0923125,24.0769375 28.0923125,23.4043906 L28.0923125,4.59570781 C28.0923125,3.92313906 27.7070938,3.31008125 27.101375,3.01859688 L21.3365469,0.244633594 C20.7524844,-0.0364545781 20.0687813,0.0323943594 19.5560313,0.405126094 C19.4828594,0.458372031 19.4130781,0.517821719 19.3475625,0.583337344 L8.31170156,10.6515937 L3.50469219,7.00267969 C3.05721719,6.66300469 2.43129687,6.69084062 2.01569375,7.06888437 L0.473933906,8.47134531 C-0.0344290625,8.93378281 -0.0350120312,9.73355469 0.472675,10.1967359 L4.64148125,14 L0.472675,17.8032969 C-0.0350120312,18.2665 -0.0344290625,19.06625 0.473933906,19.5286875 L2.01569375,20.9310937 C2.43129687,21.3092031 3.05721719,21.3369844 3.50469219,20.997375 L8.31170156,17.3484063 L19.3475625,27.4167031 C19.522125,27.591375 19.7272031,27.7229531 19.9475938,27.8088125 Z M21.0965781,7.64368281 L12.7228281,14 L21.0965781,20.3563281 L21.0965781,7.64368281 Z" opacity=".25"/>
        </g>
      </g>
    </g>
  </g>
</svg>
